<svg width="24" height="27" viewBox="0 0 24 27" fill="none" xmlns="http://www.w3.org/2000/svg">
<path d="M9.33333 20.1667V16.1667H0V10.8334H9.33333V6.83342L16 13.5001L9.33333 20.1667ZM9.33333 0.166748H21.3333C22.0406 0.166748 22.7189 0.447699 23.219 0.947797C23.719 1.44789 24 2.12617 24 2.83341V24.1667C24 24.874 23.719 25.5523 23.219 26.0524C22.7189 26.5525 22.0406 26.8334 21.3333 26.8334H9.33333C8.62609 26.8334 7.94781 26.5525 7.44772 26.0524C6.94762 25.5523 6.66667 24.874 6.66667 24.1667V21.5001H9.33333V24.1667H21.3333V2.83341H9.33333V5.50008H6.66667V2.83341C6.66667 2.12617 6.94762 1.44789 7.44772 0.947797C7.94781 0.447699 8.62609 0.166748 9.33333 0.166748Z" fill="black"/>
</svg>
