<svg width="48" height="49" viewBox="0 0 48 49" fill="none" xmlns="http://www.w3.org/2000/svg">
<path d="M17.8286 0.5C22.557 0.5 27.0918 2.37836 30.4353 5.72187C33.7788 9.06537 35.6571 13.6001 35.6571 18.3286C35.6571 22.7446 34.0389 26.804 31.3783 29.9309L32.1189 30.6714H34.2857L48 44.3857L43.8857 48.5L30.1714 34.7857V32.6189L29.4309 31.8783C26.1958 34.6397 22.0819 36.1569 17.8286 36.1571C13.1001 36.1571 8.56537 34.2788 5.22187 30.9353C1.87836 27.5918 0 23.057 0 18.3286C0 13.6001 1.87836 9.06537 5.22187 5.72187C8.56537 2.37836 13.1001 0.5 17.8286 0.5ZM17.8286 5.98571C10.9714 5.98571 5.48571 11.4714 5.48571 18.3286C5.48571 25.1857 10.9714 30.6714 17.8286 30.6714C24.6857 30.6714 30.1714 25.1857 30.1714 18.3286C30.1714 11.4714 24.6857 5.98571 17.8286 5.98571Z" fill="black"/>
</svg>
